<svg xmlns="http://www.w3.org/2000/svg" viewBox="0 0 800 800">
  <defs>
    <linearGradient id="bg" x1="0%" y1="0%" x2="100%" y2="100%">
      <stop offset="0%" style="stop-color:#F5EEDC"/>
      <stop offset="100%" style="stop-color:#FFF8E7"/>
    </linearGradient>
    <linearGradient id="jar" x1="0%" y1="0%" x2="0%" y2="100%">
      <stop offset="0%" style="stop-color:#FFF8E7"/>
      <stop offset="100%" style="stop-color:#FFF0D0"/>
    </linearGradient>
    <linearGradient id="ghee" x1="0%" y1="0%" x2="0%" y2="100%">
      <stop offset="0%" style="stop-color:#FFE082"/>
      <stop offset="100%" style="stop-color:#FFD54F"/>
    </linearGradient>
  </defs>
  <rect width="800" height="800" fill="url(#bg)"/>
  <circle cx="400" cy="400" r="180" fill="#FFF8E7" stroke="#8D6E63" stroke-width="2" opacity="0.3"/>
  <!-- Jar -->
  <path d="M320 250 L340 200 L460 200 L480 250 L480 550 Q480 580 450 580 L350 580 Q320 580 320 550 Z" 
        fill="url(#jar)" stroke="#8D6E63" stroke-width="2" opacity="0.8"/>
  <!-- Ghee -->
  <path d="M335 280 L465 280 L465 540 Q465 560 445 560 L355 560 Q335 560 335 540 Z" 
        fill="url(#ghee)" opacity="0.9"/>
  <!-- Lid -->
  <ellipse cx="400" cy="190" rx="90" ry="20" fill="#8D6E63" opacity="0.6"/>
  <ellipse cx="400" cy="190" rx="75" ry="15" fill="#FFF8E7" opacity="0.5"/>
  <text x="400" y="750" font-family="Georgia, serif" font-size="28" fill="#2E7D32" text-anchor="middle" opacity="0.6">Khetar Vala</text>
  <text x="400" y="780" font-family="Inter, sans-serif" font-size="16" fill="#8D6E63" text-anchor="middle" opacity="0.5">Cow Ghee</text>
</svg>